<svg aria-hidden="true" style="position: absolute; width: 0; height: 0; overflow: hidden;" version="1.1" xmlns="http://www.w3.org/2000/svg" xmlns:xlink="http://www.w3.org/1999/xlink">
<defs>
<symbol id="icon-antenna" viewBox="0 0 64 32">
<path fill="#2e2f42" style="fill: var(--color1, #2e2f42)" d="M13.13 9.428l-3.602-3.629 0.4-1.969c0.103 0.040 0.213 0.061 0.324 0.062h0.003c0.509 0.006 0.926-0.401 0.932-0.91s-0.402-0.926-0.91-0.932c-0.509-0.006-0.926 0.401-0.932 0.91-0.001 0.109 0.017 0.217 0.053 0.32l-2.116 0.258-3.452-3.47c-0.042-0.043-0.1-0.068-0.161-0.068s-0.117 0.024-0.159 0.066l-0.645 0.642c-0.089 0.089-0.089 0.233 0 0.322l0.347 0.352c-1.345 2.474-0.908 5.537 1.075 7.536 0.018 0.017 0.039 0.031 0.062 0.042-0.014 0.077-0.022 0.155-0.022 0.233v2.64h-2.731c-0.628 0.001-1.137 0.51-1.138 1.138v0.455c0 0.126 0.102 0.228 0.228 0.228h10.468c0.126 0 0.228-0.102 0.228-0.228v-0.455c-0.001-0.628-0.51-1.137-1.138-1.138h-2.731v-1.17c0.428 0.090 0.864 0.135 1.301 0.137 1.049-0.001 2.081-0.263 3.004-0.761l0.349 0.351c0.042 0.043 0.1 0.068 0.161 0.068s0.117-0.024 0.159-0.066l0.645-0.642c0.089-0.089 0.089-0.233 0-0.322zM9.933 2.659c0.178-0.177 0.466-0.176 0.644 0.002s0.176 0.466-0.002 0.644c-0.085 0.085-0.201 0.132-0.321 0.132h-0.001c-0.251-0.001-0.454-0.206-0.453-0.457 0.001-0.12 0.049-0.235 0.134-0.32h-0.001zM9.397 4.155l-0.255 1.257-0.502-0.505 0.757-0.752zM9.139 3.77l-0.819 0.814-0.634-0.637 1.453-0.177zM10.242 12.288c0.377 0 0.683 0.306 0.683 0.683v0.228h-10.012v-0.228c0-0.377 0.306-0.683 0.683-0.683h8.647zM7.056 11.378v0.455h-2.276v-0.455h2.276zM4.78 10.923v-1.729c0-0.552 0.51-1.001 1.138-1.001s1.138 0.449 1.138 1.001v1.729h-2.276zM7.511 10.199v-1.006c0-0.803-0.715-1.456-1.593-1.456-0.568-0.009-1.099 0.28-1.4 0.762-1.731-1.824-2.121-4.542-0.972-6.779l7.937 7.982c-1.226 0.623-2.63 0.799-3.972 0.496zM12.328 9.907l-8.984-9.037 0.322-0.321 3.386 3.405c0.002 0 0.003 0.003 0.004 0.004l5.596 5.628-0.323 0.321z"></path>
<path fill="#4d5ae5" style="fill: var(--color2, #4d5ae5)" d="M5.92 8.647h-0.002c-0.377-0.001-0.683 0.305-0.684 0.682s0.305 0.683 0.682 0.684h0.002c0.377 0.001 0.683-0.305 0.684-0.682s-0.305-0.683-0.682-0.684zM6.080 9.491c-0.043 0.043-0.101 0.066-0.161 0.066-0.126-0.001-0.227-0.103-0.226-0.229 0-0.060 0.024-0.118 0.067-0.16s0.1-0.066 0.159-0.066c0.126 0.001 0.227 0.103 0.226 0.229-0 0.060-0.024 0.118-0.067 0.16h0.002z"></path>
</symbol>
<symbol id="icon-arrow" viewBox="0 0 32 32">
<path fill="#fff" style="fill: var(--color3, #fff)" d="M32 2.667l-32 15 10.227 3.156 15.773-12.323-11.998 13.488 0.010 0.003-0.012-0.003v7.345l5.735-5.576 7.265 2.242 5-23.333z"></path>
</symbol>
<symbol id="icon-astronaut" viewBox="0 0 64 32">
<path fill="#4d5ae5" style="fill: var(--color2, #4d5ae5)" d="M13.642 1.93c-0.027-0.082-0.098-0.142-0.184-0.155l-0.815-0.119-0.365-0.739c-0.076-0.156-0.332-0.156-0.408 0l-0.365 0.739-0.815 0.119c-0.086 0.012-0.157 0.072-0.184 0.155s-0.005 0.173 0.058 0.233l0.59 0.575-0.139 0.812c-0.015 0.085 0.020 0.172 0.090 0.223s0.163 0.058 0.24 0.017l0.729-0.383 0.729 0.383c0.033 0.018 0.070 0.026 0.106 0.026 0.047 0 0.094-0.015 0.134-0.043 0.070-0.051 0.105-0.137 0.090-0.223l-0.139-0.812 0.59-0.575c0.062-0.061 0.084-0.151 0.057-0.233zM12.591 2.496c-0.053 0.052-0.078 0.128-0.065 0.201l0.081 0.475-0.427-0.224c-0.033-0.018-0.070-0.026-0.106-0.026s-0.073 0.009-0.106 0.026l-0.427 0.224 0.081-0.475c0.013-0.074-0.012-0.149-0.065-0.201l-0.346-0.337 0.477-0.069c0.074-0.011 0.138-0.057 0.171-0.124l0.213-0.432 0.213 0.432c0.033 0.067 0.097 0.114 0.171 0.124l0.477 0.069-0.345 0.337zM11.15 8.756h-0.455v0.455h0.455v-0.455zM11.15 9.666h-0.455v0.455h0.455v-0.455zM11.605 9.211h-0.455v0.455h0.455v-0.455z"></path>
<path fill="#4d5ae5" style="fill: var(--color2, #4d5ae5)" d="M10.695 9.211h-0.455v0.455h0.455v-0.455zM9.557 11.259h-0.455v0.455h0.455v-0.455zM9.557 12.169h-0.455v0.455h0.455v-0.455zM10.012 11.714h-0.455v0.455h0.455v-0.455z"></path>
<path fill="#4d5ae5" style="fill: var(--color2, #4d5ae5)" d="M9.102 11.714h-0.455v0.455h0.455v-0.455zM6.827 10.349h-0.455v0.455h0.455v-0.455zM6.827 11.259h-0.455v0.455h0.455v-0.455zM7.282 10.804h-0.455v0.455h0.455v-0.455zM6.372 10.804h-0.455v0.455h0.455v-0.455zM2.503 2.612h-0.455v0.455h0.455v-0.455zM2.503 3.522h-0.455v0.455h0.455v-0.455z"></path>
<path fill="#4d5ae5" style="fill: var(--color2, #4d5ae5)" d="M2.958 3.067h-0.455v0.455h0.455v-0.455zM2.048 3.067h-0.455v0.455h0.455v-0.455z"></path>
<path fill="#2e2f42" style="fill: var(--color1, #2e2f42)" d="M10.545 6.041c-0.123-0.165-0.303-0.272-0.507-0.301s-0.408 0.025-0.572 0.15l-0.534 0.41-0.81 0.605-0.579-0.231c1.033-0.464 1.755-1.497 1.755-2.697 0-1.631-1.332-2.958-2.97-2.958s-2.97 1.327-2.97 2.958c0 0.591 0.177 1.141 0.478 1.604l-1.181-0.010c-0.004 0-0.007 0.002-0.010 0.002-0.023 0.001-0.045 0.005-0.066 0.013-0.005 0.002-0.011 0.003-0.016 0.006-0.003 0.001-0.005 0.001-0.008 0.003l-1.379 0.681c-0 0-0 0-0 0l-0.808 0.388c-0.009 0.004-0.018 0.009-0.027 0.015-0.322 0.214-0.432 0.635-0.255 0.979 0.094 0.183 0.254 0.318 0.451 0.379 0.076 0.024 0.153 0.035 0.23 0.035 0.124 0 0.246-0.030 0.358-0.090l0.592-0.315 0.966-0.499 0.579-0.003-2.322 2.311c-0 0-0 0-0.001 0l-0.571 0.569c-0.135 0.134-0.209 0.312-0.209 0.502s0.074 0.368 0.209 0.503c0.139 0.138 0.321 0.207 0.503 0.207s0.365-0.069 0.504-0.207l0.561-0.558 0.743-0.555 0.384 0.383-0.752 0.748c-0 0-0 0-0.001 0l-0.571 0.569c-0.135 0.134-0.209 0.312-0.209 0.502s0.074 0.368 0.209 0.503c0.139 0.138 0.321 0.207 0.503 0.207s0.365-0.069 0.504-0.207l1.486-1.479c0-0 0-0 0-0.001l0.431-0.427-0.002-0.002c0.003-0.003 0.007-0.004 0.009-0.007l2.204-2.414 1.481 0.211c0.011 0.002 0.021 0.002 0.032 0.002 0.028 0 0.054-0.007 0.080-0.016 0.008-0.003 0.014-0.006 0.021-0.010 0.008-0.004 0.017-0.006 0.025-0.012l1.371-0.91c0.005-0.003 0.008-0.009 0.012-0.013s0.012-0.006 0.017-0.011l0.543-0.508c0.282-0.264 0.321-0.698 0.090-1.008zM0.909 7.582c-0.074 0.040-0.158 0.048-0.238 0.022s-0.144-0.079-0.182-0.153c-0.069-0.134-0.029-0.297 0.091-0.385l0.56-0.27 0.192 0.56-0.423 0.225zM2.401 6.802l-0.661 0.341-0.187-0.548 0.865-0.427-0.017 0.633zM8.844 3.977c0 0.392-0.094 0.761-0.256 1.092l-1.784-0.81c-0.019-0.245-0.146-0.459-0.336-0.592l0.625-2.074c1.014 0.323 1.751 1.269 1.751 2.384zM3.814 3.977c0-1.38 1.128-2.503 2.515-2.503 0.108 0 0.213 0.009 0.318 0.022l-0.611 2.028c-0.008-0-0.016-0.003-0.024-0.003-0.441 0-0.799 0.357-0.799 0.796s0.358 0.796 0.799 0.796c0.296 0 0.552-0.164 0.69-0.403l1.648 0.749c-0.459 0.617-1.192 1.020-2.021 1.020-1.387 0-2.515-1.123-2.515-2.503zM6.355 4.319c0 0.188-0.154 0.341-0.344 0.341s-0.344-0.153-0.344-0.341c0-0.188 0.154-0.341 0.344-0.341s0.344 0.153 0.344 0.341zM1.052 10.729c-0.101 0.1-0.264 0.1-0.365 0-0.048-0.048-0.075-0.112-0.075-0.18s0.027-0.132 0.075-0.18l0.41-0.409 0.363 0.362-0.409 0.407zM2.423 12.322c-0.101 0.1-0.264 0.1-0.365 0-0.048-0.048-0.075-0.112-0.075-0.18s0.027-0.132 0.075-0.18l0.411-0.409 0.363 0.362-0.409 0.408zM3.908 10.842c-0 0-0 0-0.001 0l-0.753 0.751-0.363-0.362 0.752-0.749c0-0 0-0 0.001-0 0.017-0.017 0.028-0.038 0.038-0.058 0.003-0.006 0.009-0.011 0.011-0.017 0.007-0.018 0.008-0.036 0.011-0.055 0.001-0.010 0.006-0.020 0.006-0.031 0-0.015-0.005-0.030-0.009-0.045-0.003-0.014-0.003-0.028-0.008-0.041-0.009-0.021-0.023-0.040-0.039-0.059-0.004-0.005-0.006-0.011-0.011-0.016h-0c-0-0-0-0.001-0-0.001l-0.686-0.683c-0.007-0.007-0.017-0.010-0.025-0.016-0.012-0.009-0.024-0.018-0.037-0.025s-0.026-0.010-0.040-0.014c-0.015-0.004-0.029-0.007-0.044-0.008-0.014-0.001-0.027 0-0.041 0.002-0.015 0.002-0.030 0.004-0.044 0.009s-0.027 0.012-0.040 0.019c-0.008 0.005-0.018 0.006-0.026 0.012l-0.757 0.565-0.384-0.383 1.024-1.018 1.861 1.83-0.396 0.392zM6.818 7.848c-0.007-0.001-0.013 0.002-0.019 0.001-0.017-0.001-0.033 0-0.049 0.003-0.013 0.002-0.025 0.005-0.038 0.009-0.015 0.005-0.028 0.012-0.041 0.020s-0.024 0.016-0.035 0.026c-0.005 0.005-0.012 0.007-0.017 0.013l-2.005 2.196-1.847-1.816 1.209-1.202c0.089-0.089 0.089-0.233 0.001-0.322-0.045-0.045-0.104-0.067-0.163-0.067v-0l-0.947 0.006 0.012-0.686 1.324 0.011c0.54 0.552 1.293 0.896 2.125 0.896 0.187 0 0.369-0.019 0.546-0.052 0.017 0.014 0.034 0.028 0.055 0.036l1.028 0.41 0.065 0.324 0.076 0.378-1.281-0.182zM8.542 7.924l-0.134-0.665 0.617-0.461 0.404 0.536-0.887 0.589zM10.144 6.716l-0.357 0.335-0.397-0.527 0.355-0.272c0.066-0.051 0.15-0.072 0.232-0.061s0.155 0.055 0.205 0.121c0.092 0.124 0.077 0.298-0.036 0.404z"></path>
<path fill="#2e2f42" style="fill: var(--color1, #2e2f42)" d="M5.804 7.912l-0.914-0.91c-0.088-0.088-0.232-0.088-0.321 0l-0.914 0.91c-0.043 0.043-0.067 0.101-0.067 0.161s0.024 0.119 0.067 0.161l0.914 0.91c0.044 0.044 0.103 0.066 0.161 0.066s0.116-0.022 0.16-0.066l0.914-0.91c0.043-0.043 0.067-0.101 0.067-0.161s-0.024-0.119-0.067-0.161zM4.729 8.663l-0.592-0.589 0.592-0.589 0.592 0.589-0.592 0.589zM7.323 2.164l-0.11 0.442c0.030 0.007 0.741 0.193 0.741 0.917h0.455c-0-0.861-0.711-1.265-1.087-1.359zM8.41 3.977h-0.455v0.455h0.455v-0.455z"></path>
</symbol>
<symbol id="icon-click" viewBox="0 0 32 32">
<path fill="#404bbf" style="fill: var(--color4, #404bbf)" d="M4 1h24c1.657 0 3 1.343 3 3v24c0 1.657-1.343 3-3 3h-24c-1.657 0-3-1.343-3-3v-24c0-1.657 1.343-3 3-3z"></path>
<path fill="none" stroke="#404bbf" style="stroke: var(--color4, #404bbf)" stroke-linejoin="miter" stroke-linecap="butt" stroke-miterlimit="4" stroke-width="2" d="M4 1h24c1.657 0 3 1.343 3 3v24c0 1.657-1.343 3-3 3h-24c-1.657 0-3-1.343-3-3v-24c0-1.657 1.343-3 3-3z"></path>
<path fill="#f4f4fd" style="fill: var(--color5, #f4f4fd)" d="M22.891 8.51c0.346-0.331 0.805-0.514 1.283-0.51s0.934 0.193 1.275 0.53c0.341 0.336 0.538 0.792 0.551 1.272s-0.161 0.945-0.483 1.299l-9.789 12.309c-0.168 0.182-0.371 0.328-0.597 0.43s-0.47 0.156-0.717 0.161c-0.247 0.005-0.493-0.041-0.723-0.134s-0.438-0.232-0.613-0.408l-6.492-6.527c-0.181-0.169-0.326-0.374-0.426-0.601s-0.155-0.472-0.159-0.72c-0.004-0.248 0.041-0.495 0.134-0.725s0.23-0.44 0.405-0.615c0.175-0.176 0.383-0.314 0.612-0.407s0.475-0.139 0.722-0.134c0.247 0.004 0.491 0.059 0.716 0.16s0.429 0.247 0.597 0.429l5.137 5.163 8.521-10.915c0.015-0.019 0.032-0.037 0.049-0.054h-0.002z"></path>
</symbol>
<symbol id="icon-clock" viewBox="0 0 64 32">
<path fill="#2e2f42" style="fill: var(--color1, #2e2f42)" d="M13.353 6.529c-0.001-3.606-2.925-6.529-6.531-6.529s-6.529 2.925-6.529 6.531c0.001 2.841 1.838 5.355 4.544 6.219 0.026 0.008 0.053 0.012 0.080 0.012 0.051-0 0.102-0.014 0.146-0.040 0.058-0.034 0.101-0.088 0.121-0.152l1.649-5.227c0.451-0.002 0.814-0.37 0.812-0.82s-0.37-0.814-0.82-0.812c-0.121 0-0.241 0.028-0.35 0.082l-2.179-2.179c-0.108-0.104-0.28-0.101-0.385 0.007-0.102 0.106-0.102 0.273 0 0.378l2.177 2.18c-0.167 0.341-0.072 0.753 0.229 0.985l-1.571 4.98c-3.105-1.144-4.695-4.588-3.551-7.694s4.588-4.695 7.694-3.551c3.105 1.144 4.695 4.588 3.551 7.694-0.559 1.517-1.707 2.744-3.184 3.402l-0.17-0.8c-0.031-0.147-0.175-0.241-0.322-0.21-0.046 0.010-0.089 0.032-0.125 0.063l-1.637 1.462c-0.112 0.1-0.122 0.272-0.022 0.384 0.032 0.036 0.074 0.064 0.121 0.078l2.090 0.667c0.143 0.046 0.296-0.033 0.342-0.176 0.015-0.045 0.017-0.093 0.007-0.14l-0.167-0.785c2.417-1.019 3.986-3.389 3.98-6.011zM6.823 6.256c0.15 0 0.272 0.122 0.272 0.272s-0.122 0.272-0.272 0.272c-0.15 0-0.272-0.122-0.272-0.272s0.122-0.272 0.272-0.272zM7.72 12.598l0.932-0.831 0.257 1.212-1.189-0.381z"></path>
<path fill="#4d5ae5" style="fill: var(--color2, #4d5ae5)" d="M6.551 1.359v0.544c0 0.15 0.122 0.272 0.272 0.272s0.272-0.122 0.272-0.272v-0.544c0-0.15-0.122-0.272-0.272-0.272s-0.272 0.122-0.272 0.272zM1.654 6.256c-0.15 0-0.272 0.122-0.272 0.272s0.122 0.272 0.272 0.272h0.544c0.15 0 0.272-0.122 0.272-0.272s-0.122-0.272-0.272-0.272h-0.544zM11.993 6.801c0.15 0 0.272-0.122 0.272-0.272s-0.122-0.272-0.272-0.272h-0.544c-0.15 0-0.272 0.122-0.272 0.272s0.122 0.272 0.272 0.272h0.544z"></path>
</symbol>
<symbol id="icon-close" viewBox="0 0 32 32">
<path d="M32 3.223l-3.223-3.223-12.777 12.777-12.777-12.777-3.223 3.223 12.777 12.777-12.777 12.777 3.223 3.223 12.777-12.777 12.777 12.777 3.223-3.223-12.777-12.777 12.777-12.777z"></path>
</symbol>
<symbol id="icon-diagram" viewBox="0 0 64 32">
<path fill="#4d5ae5" style="fill: var(--color2, #4d5ae5)" d="M6.368 6.385h0.455v2.047h-0.455v-2.047zM8.188 7.295h0.455v1.137h-0.455v-1.137zM4.549 7.977h0.455v0.455h-0.455v-0.455zM3.184 7.75h0.455v0.682h-0.455v-0.682z"></path>
<path fill="#2e2f42" style="fill: var(--color1, #2e2f42)" d="M0.682 12.071h10.917c0.377 0 0.682-0.306 0.682-0.682v-0.91c0-0.377-0.306-0.682-0.682-0.682h-0.227v-5.672l1.292-1.224c0.3 0.148 0.663 0.058 0.859-0.213s0.169-0.644-0.065-0.883-0.606-0.275-0.881-0.084c-0.275 0.19-0.373 0.551-0.231 0.854l-0.973 0.923v-0.525c0-0.377-0.306-0.682-0.682-0.682h-9.097c-0.377 0-0.682 0.305-0.682 0.682v6.823h-0.227c-0.377 0-0.682 0.306-0.682 0.682v0.91c0 0.377 0.305 0.682 0.682 0.682zM12.964 2.064c0.126 0 0.227 0.102 0.227 0.227s-0.102 0.227-0.227 0.227c-0.126 0-0.227-0.102-0.227-0.227s0.102-0.227 0.227-0.227zM1.365 2.973c0-0.126 0.102-0.227 0.227-0.227h9.097c0.126 0 0.227 0.102 0.227 0.227v0.955l-0.455 0.432v-0.933c0-0.126-0.102-0.227-0.227-0.227h-8.188c-0.126 0-0.227 0.102-0.227 0.227v5.686c0 0.126 0.102 0.227 0.227 0.227h8.188c0.126 0 0.227-0.102 0.227-0.227v-4.128l0.455-0.431v5.241h-9.552v-6.823zM3.412 5.93c-0.308-0.001-0.578 0.204-0.66 0.501s0.045 0.611 0.309 0.768c0.265 0.157 0.602 0.118 0.823-0.096l0.791 0.397c0.092 0.046 0.203 0.024 0.271-0.052l1.681-1.891 1.652 1.238c0.089 0.066 0.212 0.059 0.293-0.017l1.436-1.36v3.469h-7.733v-5.231h7.733v1.135l-1.609 1.524-1.666-1.249c-0.095-0.071-0.228-0.058-0.306 0.031l-1.704 1.917-0.637-0.319c0.005-0.027 0.008-0.055 0.009-0.083 0-0.377-0.305-0.682-0.682-0.682zM3.639 6.612c0 0.126-0.102 0.227-0.227 0.227s-0.227-0.102-0.227-0.227c0-0.126 0.102-0.227 0.227-0.227s0.227 0.102 0.227 0.227zM5.004 10.251h2.274v0.227c0 0.126-0.102 0.227-0.227 0.227h-1.819c-0.126 0-0.227-0.102-0.227-0.227v-0.227zM0.455 10.479c0-0.126 0.102-0.227 0.227-0.227h3.866v0.227c0 0.377 0.306 0.682 0.682 0.682h1.819c0.377 0 0.682-0.306 0.682-0.682v-0.227h3.866c0.126 0 0.227 0.102 0.227 0.227v0.91c0 0.126-0.102 0.227-0.227 0.227h-10.917c-0.126 0-0.227-0.102-0.227-0.227v-0.91z"></path>
</symbol>
<symbol id="icon-email" viewBox="0 0 24 32">
<path d="M20 8h-16c-1.1 0-1.99 0.9-1.99 2l-0.010 12c0 1.1 0.9 2 2 2h16c1.1 0 2-0.9 2-2v-12c0-1.1-0.9-2-2-2zM19.6 12.25l-7.070 4.42c-0.32 0.2-0.74 0.2-1.060 0l-7.070-4.42c-0.25-0.16-0.4-0.43-0.4-0.72 0-0.67 0.73-1.070 1.3-0.72l6.7 4.19 6.7-4.19c0.57-0.35 1.3 0.050 1.3 0.72 0 0.29-0.15 0.56-0.4 0.72z"></path>
</symbol>
<symbol id="icon-facebook" viewBox="0 0 32 32">
<path fill="#f4f4fd" style="fill: var(--color5, #f4f4fd)" d="M21.329 5.313h2.921v-5.088c-0.504-0.069-2.237-0.225-4.256-0.225-4.212 0-7.097 2.649-7.097 7.519v4.481h-4.648v5.688h4.648v14.312h5.699v-14.311h4.46l0.708-5.688h-5.169v-3.919c0.001-1.644 0.444-2.769 2.735-2.769z"></path>
</symbol>
<symbol id="icon-instagram" viewBox="0 0 32 32">
<path fill="#f4f4fd" style="fill: var(--color5, #f4f4fd)" d="M31.969 9.408c-0.075-1.7-0.35-2.869-0.744-3.882-0.406-1.075-1.031-2.038-1.85-2.838-0.8-0.813-1.769-1.444-2.832-1.844-1.019-0.394-2.182-0.669-3.882-0.744-1.713-0.081-2.257-0.1-6.601-0.1s-4.888 0.019-6.595 0.094c-1.7 0.075-2.869 0.35-3.882 0.744-1.075 0.406-2.038 1.031-2.838 1.85-0.813 0.8-1.444 1.769-1.844 2.832-0.394 1.019-0.669 2.182-0.744 3.882-0.081 1.713-0.1 2.257-0.1 6.601s0.019 4.888 0.094 6.595c0.075 1.7 0.35 2.869 0.744 3.882 0.406 1.075 1.038 2.038 1.85 2.838 0.8 0.813 1.769 1.444 2.832 1.844 1.019 0.394 2.182 0.669 3.882 0.744 1.706 0.075 2.25 0.094 6.595 0.094s4.888-0.019 6.595-0.094c1.7-0.075 2.869-0.35 3.882-0.744 2.151-0.831 3.851-2.532 4.682-4.682 0.394-1.019 0.669-2.182 0.744-3.882 0.075-1.707 0.094-2.25 0.094-6.595s-0.006-4.888-0.081-6.595zM29.087 22.473c-0.069 1.563-0.331 2.407-0.55 2.969-0.538 1.394-1.644 2.5-3.038 3.038-0.563 0.219-1.413 0.481-2.969 0.55-1.688 0.075-2.194 0.094-6.464 0.094s-4.782-0.019-6.464-0.094c-1.563-0.069-2.407-0.331-2.969-0.55-0.694-0.256-1.325-0.663-1.838-1.194-0.531-0.519-0.938-1.144-1.194-1.838-0.219-0.563-0.481-1.413-0.55-2.969-0.075-1.688-0.094-2.194-0.094-6.464s0.019-4.782 0.094-6.464c0.069-1.563 0.331-2.407 0.55-2.969 0.256-0.694 0.663-1.325 1.2-1.838 0.519-0.531 1.144-0.938 1.838-1.194 0.563-0.219 1.413-0.481 2.969-0.55 1.688-0.075 2.194-0.094 6.464-0.094 4.276 0 4.782 0.019 6.464 0.094 1.563 0.069 2.407 0.331 2.969 0.55 0.694 0.256 1.325 0.662 1.838 1.194 0.531 0.519 0.938 1.144 1.194 1.838 0.219 0.563 0.481 1.413 0.55 2.969 0.075 1.688 0.094 2.194 0.094 6.464s-0.019 4.77-0.094 6.458z"></path>
<path fill="#f4f4fd" style="fill: var(--color5, #f4f4fd)" d="M16.059 7.783c-4.538 0-8.22 3.682-8.22 8.22s3.682 8.22 8.22 8.22c4.538 0 8.22-3.682 8.22-8.22s-3.682-8.22-8.22-8.22zM16.059 21.335c-2.944 0-5.332-2.388-5.332-5.332s2.388-5.332 5.332-5.332c2.944 0 5.332 2.388 5.332 5.332s-2.388 5.332-5.332 5.332zM26.524 7.458c0 1.060-0.859 1.919-1.919 1.919s-1.919-0.859-1.919-1.919c0-1.060 0.859-1.919 1.919-1.919s1.919 0.859 1.919 1.919z"></path>
</symbol>
<symbol id="icon-linkedin" viewBox="0 0 32 32">
<path fill="#f4f4fd" style="fill: var(--color5, #f4f4fd)" d="M31.992 32v-0.001h0.008v-11.736c0-5.741-1.236-10.164-7.948-10.164-3.227 0-5.392 1.771-6.276 3.449h-0.093v-2.913h-6.364v21.364h6.627v-10.579c0-2.785 0.528-5.479 3.977-5.479 3.399 0 3.449 3.179 3.449 5.657v10.401h6.62zM0.528 10.636h6.635v21.364h-6.635v-21.364zM3.843-0c-2.121 0-3.843 1.721-3.843 3.843s1.721 3.879 3.843 3.879c2.121 0 3.843-1.757 3.843-3.879-0.001-2.121-1.723-3.843-3.843-3.843z"></path>
</symbol>
<symbol id="icon-person" viewBox="0 0 32 32">
<path d="M16 16c2.947 0 5.333-2.387 5.333-5.333s-2.387-5.333-5.333-5.333-5.333 2.387-5.333 5.333 2.387 5.333 5.333 5.333zM16 18.667c-3.56 0-10.667 1.787-10.667 5.333v1.333c0 0.733 0.6 1.333 1.333 1.333h18.667c0.733 0 1.333-0.6 1.333-1.333v-1.333c0-3.547-7.107-5.333-10.667-5.333z"></path>
</symbol>
<symbol id="icon-phone" viewBox="0 0 24 32">
<path d="M19.635 18.487l-2.451-0.28c-0.589-0.067-1.167 0.135-1.582 0.55l-1.775 1.775c-2.731-1.389-4.969-3.618-6.359-6.359l1.785-1.785c0.415-0.415 0.618-0.994 0.55-1.582l-0.28-2.432c-0.116-0.975-0.936-1.708-1.92-1.708h-1.669c-1.090 0-1.997 0.907-1.93 1.997 0.511 8.24 7.102 14.821 15.332 15.332 1.090 0.068 1.997-0.839 1.997-1.93v-1.669c0.010-0.975-0.724-1.795-1.698-1.911z"></path>
</symbol>
<symbol id="icon-twitter" viewBox="0 0 32 32">
<path fill="#f4f4fd" style="fill: var(--color5, #f4f4fd)" d="M32 6.078c-1.19 0.522-2.458 0.868-3.78 1.036 1.36-0.812 2.398-2.088 2.886-3.626-1.268 0.756-2.668 1.29-4.16 1.588-1.204-1.282-2.92-2.076-4.792-2.076-3.632 0-6.556 2.948-6.556 6.562 0 0.52 0.044 1.020 0.152 1.496-5.454-0.266-10.28-2.88-13.522-6.862-0.566 0.982-0.898 2.106-0.898 3.316 0 2.272 1.17 4.286 2.914 5.452-1.054-0.020-2.088-0.326-2.964-0.808v0.072c0 3.188 2.274 5.836 5.256 6.446-0.534 0.146-1.116 0.216-1.72 0.216-0.42 0-0.844-0.024-1.242-0.112 0.85 2.598 3.262 4.508 6.13 4.57-2.232 1.746-5.066 2.798-8.134 2.798-0.538 0-1.054-0.024-1.57-0.090 2.906 1.874 6.35 2.944 10.064 2.944 12.072 0 18.672-10 18.672-18.668 0-0.29-0.010-0.57-0.024-0.848 1.302-0.924 2.396-2.078 3.288-3.406z"></path>
</symbol>
<symbol id="icon-click-wo-fill" viewBox="0 0 32 32">
<path d="M27 4l-15 15-7-7-5 5 12 12 20-20z"></path>
</symbol>
</defs>
</svg>
